<?xml version="1.0" encoding="utf-8"?>
<!-- Generator: Adobe Illustrator 19.0.0, SVG Export Plug-In . SVG Version: 6.00 Build 0)  -->
<svg version="1.1" id="Layer_1" xmlns="http://www.w3.org/2000/svg" xmlns:xlink="http://www.w3.org/1999/xlink" x="0px" y="0px"
	 viewBox="0 0 454 122" style="enable-background:new 0 0 454 122;" xml:space="preserve">
<g id="XMLID_3_">
	<path id="XMLID_4_" d="M59,72.6v14c0,1.4,0.1,2.3,0.3,2.8c0.1,0.2,0.5,0.4,1,0.6c0.5,0.2,1.5,0.4,2.8,0.5c1.3,0.1,2.4,0.2,3.3,0.2
		v1H39v-1c4.2,0,7.1-0.2,8.6-0.7l0.7-0.3c0.4-0.4,0.6-1.4,0.6-3.1V29.7c0-1.4-0.2-2.4-0.6-3c-0.4-0.6-0.8-0.9-1.2-1
		c-1.1-0.4-3.8-0.5-8.1-0.5v-1L59,22.4v48.2l13.4-13.4c2.1-2.1,3.2-3.9,3.2-5.6c0-1.4-0.7-2.4-2.2-3.2s-3.7-1.1-6.8-1.1v-1.1h24.3
		v1.1c-2.7,0-4.8,0.4-6.3,1.2c-1.5,0.8-3.6,2.4-6.2,4.8l-6.6,6.5L85.2,87c0.8,1.6,1.7,2.6,2.9,3c1.2,0.5,3.1,0.7,5.8,0.7v1H68.1v-1
		c2.3,0,4.1-0.1,5.4-0.2c1.3-0.1,1.9-0.6,1.9-1.5c0-0.4-0.3-1.2-0.8-2.3l-10-19.8L59,72.6z"/>
	<path id="XMLID_6_" d="M106.3,69.8c0,7.6,0.9,13.1,2.7,16.5c1.8,3.4,4.5,5.1,8.2,5.1c3.9,0,7.3-1.3,10.3-3.9
		c3.6-3.2,5.4-7.5,5.4-13h0.8c0,5.3-1.7,9.6-5.1,13c-3.4,3.4-7.9,5.1-13.6,5.1c-4.7,0-9-1.8-12.9-5.4c-4.6-4.2-6.9-9.8-6.9-16.6
		c0-7.4,2.3-13.5,6.8-18.1c4-4,8.4-6,13.4-6c4.6,0,8.4,1.3,11.4,4c4.5,4,6.7,10.4,6.7,19.4H106.3z M124.6,68.5
		c0-6.9-0.6-12.1-1.8-15.7c-1.2-3.6-3.2-5.4-5.9-5.4c-3.8,0-6.5,1.7-8.1,5.1c-1.6,3.4-2.4,8.7-2.4,16H124.6z"/>
	<path id="XMLID_9_" d="M157.2,92.2l-14.8-40.8c-0.6-1.6-1-2.6-1.2-2.9c-0.4-0.7-1.7-1.1-3.7-1.1h-2.4v-1.1h24.3v1.1
		c-1.6,0-3.3,0-4.9,0.1c-1.7,0-2.5,0.5-2.5,1.3l0.6,2.1l10.1,27.3l7.1-20.8c0.8-2.5,1.3-4.4,1.3-5.7c0-2.8-2.4-4.3-7.1-4.3v-1.1
		h17.9v1.1c-2.7,0-4.8,0.7-6.3,2c-1.5,1.3-3.2,4.6-5,9.8l-11.3,32.9H157.2z"/>
	<path id="XMLID_11_" d="M203.1,46.4v40.2c0,1.4,0.1,2.3,0.3,2.8c0.1,0.2,0.5,0.4,1,0.6c1.5,0.5,4.6,0.7,9.2,0.7v1h-31v-1
		c2,0,3.9-0.1,5.6-0.2c1.7-0.1,3.1-0.4,4.3-0.9c0.4-0.4,0.6-1.4,0.6-3.1V53.4c0-1.4-0.1-2.2-0.4-2.6c-0.5-0.7-1-1.1-1.4-1.3
		c-1.3-0.4-4.2-0.5-8.7-0.5v-1L203.1,46.4z M197.5,22.4c1.7,0,3.1,0.6,4.2,1.7c1.1,1.1,1.7,2.5,1.7,4.2c0,1.7-0.6,3.1-1.7,4.2
		c-1.1,1.1-2.5,1.7-4.2,1.7c-1.7,0-3.1-0.6-4.2-1.7c-1.1-1.1-1.7-2.5-1.7-4.2c0-1.7,0.6-3.1,1.7-4.2C194.5,23,195.9,22.4,197.5,22.4
		z"/>
	<path id="XMLID_14_" d="M235.9,65.6v20.9c0,1.4,0.1,2.3,0.3,2.8c0.1,0.2,0.5,0.4,1,0.6c0.5,0.2,1.5,0.4,2.9,0.5s2.6,0.2,3.7,0.2v1
		h-27.1v-1c1.6,0,3.1-0.1,4.6-0.2c1.5-0.1,2.9-0.4,4.1-0.9c0.4-0.4,0.6-1.4,0.6-3.1V54.2c0-0.6,0-1.3-0.1-1.9c0-0.6-0.2-1.1-0.5-1.5
		l-0.6-1.1c-0.7-0.5-3.4-0.7-8.1-0.7v-1l19.2-1.7v13.5c0.4-3,1.3-5.7,2.8-8c2-3.2,4.1-5,6.3-5.2c2.2-0.2,3.6-0.4,4.2-0.4
		c4.5,0,8,1.3,10.6,4c2.2,2.3,3.3,5,3.3,8.1v28.2c0,1.4,0.1,2.3,0.3,2.8c0.1,0.2,0.5,0.4,1.1,0.6c0.6,0.2,1.6,0.4,3.1,0.5
		c1.5,0.1,2.9,0.2,4.2,0.2v1h-27.1v-1c1.1,0,2.4-0.1,3.9-0.2c1.5-0.1,2.8-0.4,3.9-0.9c0.4-0.4,0.6-1.4,0.6-3.1v-27
		c0-3.4-0.3-6-0.8-7.8c-0.9-2.9-2.6-4.4-5.1-4.4c-3.3,0-5.9,2-8,6.1C237.6,56.6,236.5,60.6,235.9,65.6z"/>
	<path id="XMLID_16_" d="M320,86.5c0,1.4,0.1,2.3,0.3,2.8c0.1,0.2,0.5,0.4,1,0.6c1.5,0.5,4.6,0.7,9.2,0.7v1h-31v-1
		c2,0,3.9-0.1,5.6-0.2c1.7-0.1,3.1-0.4,4.3-0.9c0.4-0.4,0.6-1.4,0.6-3.1V29.7c0-1.4-0.2-2.4-0.6-3c-0.4-0.6-0.8-0.9-1.3-1.1
		c-1.3-0.4-4.1-0.5-8.5-0.5v-1l20.4-1.8V86.5z"/>
	<path id="XMLID_18_" d="M344.5,69.8c0,7.6,0.9,13.1,2.7,16.5c1.8,3.4,4.5,5.1,8.2,5.1c3.9,0,7.3-1.3,10.3-3.9
		c3.6-3.2,5.4-7.5,5.4-13h0.8c0,5.3-1.7,9.6-5.1,13c-3.4,3.4-7.9,5.1-13.6,5.1c-4.7,0-9-1.8-12.9-5.4c-4.6-4.2-6.9-9.8-6.9-16.6
		c0-7.4,2.3-13.5,6.8-18.1c4-4,8.4-6,13.4-6c4.6,0,8.4,1.3,11.4,4c4.5,4,6.7,10.4,6.7,19.4H344.5z M362.7,68.5
		c0-6.9-0.6-12.1-1.8-15.7c-1.2-3.6-3.2-5.4-5.9-5.4c-3.8,0-6.5,1.7-8.1,5.1c-1.6,3.4-2.4,8.7-2.4,16H362.7z"/>
	<path id="XMLID_21_" d="M386.8,69.8c0,7.6,0.9,13.1,2.7,16.5c1.8,3.4,4.5,5.1,8.2,5.1c3.9,0,7.3-1.3,10.3-3.9
		c3.6-3.2,5.4-7.5,5.4-13h0.8c0,5.3-1.7,9.6-5.1,13c-3.4,3.4-7.9,5.1-13.6,5.1c-4.7,0-9-1.8-12.9-5.4c-4.6-4.2-6.9-9.8-6.9-16.6
		c0-7.4,2.3-13.5,6.8-18.1c4-4,8.4-6,13.4-6c4.6,0,8.4,1.3,11.4,4c4.5,4,6.7,10.4,6.7,19.4H386.8z M405,68.5
		c0-6.9-0.6-12.1-1.8-15.7c-1.2-3.6-3.2-5.4-5.9-5.4c-3.8,0-6.5,1.7-8.1,5.1c-1.6,3.4-2.4,8.7-2.4,16H405z"/>
</g>
</svg>
