<?xml version="1.0" encoding="utf-8"?>
<!-- Generator: Adobe Illustrator 19.0.0, SVG Export Plug-In . SVG Version: 6.00 Build 0)  -->
<svg version="1.1" id="Layer_1" xmlns="http://www.w3.org/2000/svg" xmlns:xlink="http://www.w3.org/1999/xlink" x="0px" y="0px"
	 viewBox="0 0 290 93" style="enable-background:new 0 0 290 93;" xml:space="preserve">
<style type="text/css">
	.st0{stroke:#FFFFFF;stroke-miterlimit:10;}
</style>
<g id="XMLID_1_">
	<path id="XMLID_26_" class="st0" d="M98.2,40.2c-2,0-4.3,3.1-4.3,4.9c0,0.6,1,0.5,1.5,0.9c1.4,1,4.3,3.1,4.3,11.1
		c0,11.5-5.8,18.2-11,18.2c-1.9,0-2.2-1.2-2.2-3.1V45.6c0-2.4-2.3-4.4-5.8-4.4c-1.5,0-2.7,0.7-2.7,1.7c0,0.7,0.5,1.3,0.5,3.2v16.8
		c-2,6-4.8,12.5-13.1,12.5c-5.5,0-8.4-2.8-9.9-6.1c10.3-2.9,15.7-11.6,15.7-18.9c0-5.9-3.6-10-9.6-10c-8.2,0-16.2,9.4-16.2,22
		c0,1.5,0.1,3,0.4,4.4c-1.4,4.1-4.7,8.7-8.9,8.7c-4.1,0-6.5-4-7.5-8.2c4.2-2.9,10.2-8.5,10.2-16.2c0-5.6-3-10.7-9.5-10.7
		c-4.8,0-8.5,3.9-12.5,8.2V17.5c0-2.4-2.1-4.4-5.6-4.4c-1.5,0-3.4,0.4-3.4,1.1c0,0.7,1,0.9,1,3.8v59.5c0,3.7,2.9,4.4,5.1,4.4
		c3.1,0,2.9-2.4,2.9-4.3V60.6c3-10.5,8.1-13.7,10.7-13.7c2,0,3.4,1.7,3.4,4.2c0,9.1-9.8,12.3-9.8,15.4c0,6.5,5.5,15.5,13.9,15.5
		c5.9,0,10.2-3.8,13-8c3.5,5.1,9.3,8,15.4,8c6.9,0,11.6-2.3,14.7-5.5c1,3.2,3.6,5.5,8.4,5.5c12.5,0,20.5-11.1,20.5-24.5
		C107.7,48.9,102.5,40.2,98.2,40.2z M54,62c-0.2-4.2,1.4-15.1,6.6-15.1c1.4,0,2.2,1.3,2.2,3.5c0,5.9-3.4,11.1-8.7,13.4
		C54.1,63.1,54,62.5,54,62z"/>
	<path id="XMLID_27_" class="st0" d="M118.3,31.4c3.7,0,6.5-2.8,6.5-6c0-3.5-2.8-6-6.5-6c-3.5,0-6.4,2.6-6.4,6
		C111.9,28.6,114.8,31.4,118.3,31.4z"/>
	<path id="XMLID_28_" class="st0" d="M172.1,61.7c-1.1,0-2.1,0.9-2.5,3c-1,4.4-3,10.7-7.2,10.7c-2.8,0-2.9-3.7-2.9-4.6V50.3
		c0-4.6-1.4-10-8.5-10c-5.2,0-9.5,4.3-11.5,9.8v-4.5c0-2.4-2.5-4.4-6-4.4c-1.5,0-3.1,0.7-3.1,1.7c0,0.7,0.1,1.3,0.1,3.2v17.2
		c0,0.4-0.1,0.8-0.2,1.3c-1,4.4-2.8,10.7-7.1,10.7c-2.8,0-2.7-3.7-2.7-4.6V45.6c0-2.4-2.1-4.4-5.6-4.4c-1.5,0-2.8,0.7-2.8,1.7
		c0,0.7,0.4,1.3,0.4,3.2v26.5c0,5.1,3.4,9.3,9,9.3c4,0,7.1-1.8,9.5-4.3c0,3.6,3.2,4.3,5.3,4.3c3.1,0,3.2-2.4,3.2-4.3V63.1
		c0-7.8,7-16.4,10.1-16.4c2,0,1.9,2.6,1.9,5.7v20.1c0,5.1,3.4,9.3,9,9.3c9.1,0,13.4-8.9,15.2-15.5c0.1-0.4,0.1-0.6,0.1-0.7
		C175.8,63.8,173.8,61.7,172.1,61.7z"/>
	<path id="XMLID_31_" class="st0" d="M278.9,62.8c-1.3,6-4.7,12.5-12.9,12.5c-5.5,0-8.4-2.8-9.9-6.1c10.3-2.9,15.7-11.6,15.7-18.9
		c0-5.9-3.6-10-9.5-10c-8.2,0-16.2,9.4-16.2,22c0,1.4,0.1,2.8,0.4,4.1c-1.8,4.8-5.3,9-11.9,9c-5.5,0-8.4-2.8-9.9-6.1
		c10.3-2.9,15.7-11.6,15.7-18.9c0-5.9-3.6-10-9.5-10c-8.2,0-16.2,9.4-16.2,22c0,1.7,0.2,3.2,0.5,4.7c-1.5,4-4.7,8.4-8.8,8.4
		c-3.9,0-5.7-2.9-5.7-6.8v-5.7c2-1.2,11.1-21.2,11.1-35.8c0-5.6-0.1-16-9.4-16c-5.3,0-9.6,5.3-9.6,12.7v45.1
		c0,7.8,4.4,13.1,12.5,13.1c5.9,0,10.1-3.7,13-7.8c3.5,5.1,9.3,7.8,15.3,7.8c8.3,0,13.4-3.4,16.5-7.5c3.5,4.9,9.2,7.5,15,7.5
		c15.6,0,19.8-12,20.6-18C285.7,60.4,279.8,58.4,278.9,62.8z M200.5,21.5c0-1.6,0.5-4,1.7-4c1.7,0,2.8,3,2.8,9.5
		c0,5.5-2.5,18.5-4.5,22.7V21.5z M223.2,62c-0.2-4.2,1.4-15.1,6.6-15.1c1.4,0,2.2,1.3,2.2,3.5c0,5.9-3.4,11.1-8.7,13.4
		C223.3,63.1,223.2,62.5,223.2,62z M254.7,62c-0.2-4.2,1.4-15.1,6.6-15.1c1.4,0,2.2,1.3,2.2,3.5c0,5.9-3.4,11.1-8.7,13.4
		C254.8,63.1,254.7,62.5,254.7,62z"/>
</g>
</svg>
